<?xml version="1.0" standalone="no"?>
<!DOCTYPE svg PUBLIC "-//W3C//DTD SVG 20010904//EN"
 "http://www.w3.org/TR/2001/REC-SVG-20010904/DTD/svg10.dtd">
<svg version="1.0" xmlns="http://www.w3.org/2000/svg"
 width="1050.000000pt" height="1050.000000pt" viewBox="0 0 1050.000000 1050.000000"
 preserveAspectRatio="xMidYMid meet">
<metadata>
Created by potrace 1.11, written by Peter Selinger 2001-2013
</metadata>
<g transform="translate(0.000000,1050.000000) scale(0.100000,-0.100000)"
fill="#000000" stroke="none">
<path d="M2980 9636 c-143 -38 -222 -122 -263 -277 -12 -46 -14 -175 -15 -738
0 -375 -2 -685 -5 -687 -3 -3 -108 28 -234 70 -125 41 -311 102 -413 135 -102
33 -282 92 -400 131 -240 78 -314 95 -400 87 -111 -9 -223 -92 -277 -205 -24
-50 -27 -69 -27 -152 1 -108 18 -160 76 -225 68 -78 119 -101 577 -252 240
-79 443 -146 451 -148 8 -2 108 -35 222 -73 l206 -69 -345 -474 c-431 -593
-468 -645 -493 -705 -103 -239 92 -511 352 -491 150 12 217 68 423 352 609
844 648 896 658 878 6 -10 15 -22 19 -28 5 -5 52 -68 104 -140 104 -143 114
-157 432 -595 238 -329 263 -359 333 -407 258 -178 602 54 545 367 -15 82
-115 234 -471 715 -28 39 -118 162 -200 275 -82 113 -157 215 -168 227 l-20
22 24 9 c32 13 251 85 264 88 6 1 177 57 380 124 204 67 426 140 495 162 181
59 248 96 310 174 62 78 85 208 55 310 -55 191 -231 296 -426 255 -48 -10
-375 -115 -904 -289 -93 -31 -172 -56 -175 -57 -3 0 -56 -18 -118 -39 -63 -20
-116 -35 -119 -33 -2 3 -5 319 -7 703 -2 688 -3 700 -24 762 -30 87 -69 140
-139 190 -72 51 -195 71 -283 48z"/>
<path d="M935 4906 c-242 -63 -428 -245 -503 -494 -16 -53 -17 -179 -19 -1742
-2 -1744 -3 -1716 35 -1836 28 -90 93 -192 173 -273 89 -89 199 -149 331 -181
82 -20 119 -20 4318 -17 3959 2 4239 3 4291 19 156 47 251 112 378 258 37 42
91 152 117 235 18 58 19 127 19 1750 0 930 -4 1712 -8 1740 -19 113 -100 266
-192 359 -83 84 -231 166 -345 192 -19 5 -1941 9 -4270 11 l-4235 2 -90 -23z
m4600 -348 l44 -33 1 -1527 0 -1527 383 -3 c349 -3 385 -5 420 -22 136 -67
140 -241 7 -316 l-45 -25 -903 -3 c-593 -2 -923 1 -960 8 -103 19 -162 83
-162 176 0 70 32 121 95 153 l49 26 378 3 378 3 0 1325 c0 1258 -1 1325 -17
1320 -10 -3 -162 -51 -337 -106 -332 -104 -389 -115 -444 -86 -57 30 -102 103
-102 168 0 52 37 115 83 143 29 16 990 330 1085 354 2 1 23 -14 47 -31z m4247
-45 l38 -37 0 -178 0 -179 -451 -1442 c-248 -793 -459 -1458 -469 -1477 -48
-94 -142 -125 -238 -79 -61 30 -97 86 -95 153 0 38 115 416 443 1466 243 778
445 1421 447 1428 4 9 -144 12 -721 12 l-726 0 0 -87 c0 -109 -12 -153 -53
-197 -68 -72 -179 -71 -249 3 -20 21 -41 56 -47 77 -6 23 -11 136 -11 269 l0
229 37 38 37 38 1010 0 1010 0 38 -37z m-7452 -928 c173 -26 354 -90 492 -175
58 -36 64 -37 72 -6 8 32 52 83 87 101 36 19 122 19 157 1 37 -19 68 -55 87
-98 12 -31 15 -90 15 -345 0 -194 -4 -323 -11 -348 -15 -52 -74 -110 -126
-124 -54 -15 -119 1 -158 36 -34 32 -64 98 -65 140 0 49 -34 128 -80 188 -47
61 -158 150 -237 189 -205 102 -564 125 -813 50 -79 -23 -195 -86 -266 -143
-117 -95 -233 -276 -288 -448 -77 -246 -50 -570 66 -771 120 -210 324 -363
564 -424 127 -32 401 -32 551 0 258 56 449 152 643 323 42 36 90 74 107 83 66
33 146 14 200 -47 78 -89 44 -214 -89 -332 -177 -155 -437 -291 -683 -355
-185 -48 -245 -55 -475 -55 -197 1 -224 3 -326 27 -321 76 -582 256 -761 526
-238 357 -270 893 -79 1298 156 330 464 590 806 679 174 46 427 58 610 30z"/>
</g>
</svg>
